# xmcd
#
# Track frame offsets:
#   150
#   19613
#   37840
#   54667
#   71193
#   91384
#   108044
#   126014
#   145761
#   162745
#   181515
#   198178
#   215984
#   231362
#   248754
#   274370
#   293155
#   312359
#
# Disc length: 4400 seconds
#
# Revision: 0
# Processed by: cddbd v1.5.2PL0 Copyright (c) Steve Scherf et al.
# Submitted via: uFREEDB ActiveX Control 1.5
#
DISCID=08112e12
DTITLE=Black - Black
DYEAR=1900
DGENRE=Blues
TTITLE0=vhb
TTITLE1=hgvn
TTITLE2=jhb
TTITLE3=gujui
TTITLE4=tyjm
TTITLE5=tjn
TTITLE6=jt
TTITLE7=thjn
TTITLE8=thjmn
TTITLE9=hj
TTITLE10=n
TTITLE11=n
TTITLE12=n
TTITLE13=h
TTITLE14=n
TTITLE15=t
TTITLE16=n
TTITLE17=j 
EXTD=
EXTT0=
EXTT1=
EXTT2=
EXTT3=
EXTT4=
EXTT5=
EXTT6=
EXTT7=
EXTT8=
EXTT9=
EXTT10=
EXTT11=
EXTT12=
EXTT13=
EXTT14=
EXTT15=
EXTT16=
EXTT17=
PLAYORDER=
